<svg width="97" height="88" viewBox="0 0 97 88" fill="none" xmlns="http://www.w3.org/2000/svg">
<path d="M55.7973 65.0129C55.8046 70.7414 56.2076 70.9401 60.2045 71.2033L64.3284 71.4462L64.5069 71.5419C65.3939 72.0203 65.6717 73.152 65.5558 74.0629C65.4288 75.0401 64.8694 75.7633 64.0965 75.9528L63.9696 75.9823L63.8389 75.9767C60.5983 75.8314 54.9582 75.7467 48.7475 75.7467C42.202 75.7467 36.5618 75.8314 33.2734 75.9767L33.1427 75.9823L33.0158 75.9528C32.241 75.7633 31.6816 75.0401 31.5565 74.0629C31.4387 73.152 31.7166 72.0203 32.6036 71.5419L32.7839 71.4462L36.9133 71.2033C40.9065 70.9401 41.3076 70.7414 41.315 65.0019C25.5777 63.2316 15.7732 55.6114 15.7732 44.5905C15.7732 33.4886 24.2289 26.38 39.2834 24.3779C39.3368 25.8132 39.3791 27.7399 39.4104 29.9536C38.4903 30.1873 37.6126 30.4486 36.8286 30.756L36.4367 30.9013C33.2991 32.0772 31.1627 34.2726 30.2205 37.2684L30.1856 37.3678C29.639 38.6798 29.3391 41.1549 29.3391 44.3421V44.6071C29.3391 47.7943 29.639 50.2693 30.1856 51.5795L30.226 51.6973C30.9529 54.0086 32.4085 55.8396 34.4677 57.0891C37.4285 59.0617 43.0871 60.0794 48.7015 60.0794C54.8441 60.0794 61.0381 58.8593 63.6954 56.5075C65.3111 55.2893 66.4685 53.6663 67.0924 51.6844L67.1273 51.5795C67.6739 50.2693 67.9738 47.7943 67.9738 44.6071V44.3421C67.9738 41.1549 67.6739 38.6798 67.1273 37.3678L67.0942 37.2702C66.1502 34.2726 64.0137 32.0772 60.913 30.9161L60.51 30.7652C59.1335 30.2241 57.5381 29.7935 55.7973 29.4844V57.4479C53.7768 57.8214 51.39 58.0551 48.7015 58.0551C45.8805 58.0551 43.3963 57.7975 41.315 57.3908V50.9152C41.4438 44.8831 41.5726 35.3178 41.4273 28.5496L41.4291 28.5514C41.4273 28.3895 41.3132 23.8074 41.3132 23.6565C41.2856 19.2272 40.8642 18.7579 37.5371 18.3917L32.8557 17.8526C32.1472 17.536 31.6687 16.7264 31.608 15.7437C31.5473 14.7666 31.9135 13.9146 32.5631 13.5226L32.7342 13.4177L32.933 13.3956C36.3575 12.9908 40.6801 12.2271 45.1003 11.2463C47.43 10.6905 49.5922 9.98575 51.1729 9.4705C52.7463 8.95709 53.4014 8.74914 53.8228 8.74914C54.6969 8.74914 55.7218 9.21288 56.042 10.2471L56.0991 10.4292L56.0788 10.6206C55.9022 12.2547 55.7973 15.6572 55.7973 19.7167V24.1166C72.1952 25.7083 81.4403 32.9697 81.4403 44.5905C81.4403 55.6353 71.5953 63.2666 55.7973 65.0129ZM48.5009 0.30452C22.1126 0.30452 0.720459 19.8712 0.720459 44.0053C0.720459 68.1412 22.1126 87.7061 48.5009 87.7061C74.8892 87.7061 96.2796 68.1412 96.2796 44.0053C96.2796 19.8712 74.8892 0.30452 48.5009 0.30452Z" fill="#FAA41A"/>
</svg>
